<?xml version="1.0" standalone="no"?>
<!DOCTYPE svg PUBLIC "-//W3C//DTD SVG 20010904//EN"
 "http://www.w3.org/TR/2001/REC-SVG-20010904/DTD/svg10.dtd">
<svg version="1.0" xmlns="http://www.w3.org/2000/svg"
 width="348.000000pt" height="348.000000pt" viewBox="0 0 348.000000 348.000000"
 preserveAspectRatio="xMidYMid meet">

<g transform="translate(0.000000,348.000000) scale(0.100000,-0.100000)"
fill="#000000" stroke="none">
<path d="M750 3225 l0 -185 45 -68 46 -68 -3 -155 -3 -154 -115 -3 -115 -3 2
-1046 3 -1047 567 -218 568 -218 495 190 c272 104 529 203 570 219 l75 28 3
1047 2 1046 -115 0 -115 0 0 163 0 162 45 67 45 67 0 181 0 180 -270 0 -270 0
0 -85 0 -85 -130 0 -130 0 0 85 0 85 -200 0 -200 0 0 -85 0 -85 -130 0 -130 0
0 85 0 85 -270 0 -270 0 0 -185z m440 5 l0 -90 225 0 225 0 0 90 0 90 105 0
105 0 0 -90 0 -90 225 0 225 0 0 90 0 90 175 0 175 0 0 -127 c-1 -91 -5 -133
-14 -145 -12 -17 -67 -18 -889 -18 l-876 0 -15 22 c-12 17 -16 50 -16 145 l0
123 175 0 175 0 0 -90z m1380 -279 c-5 -11 -10 -33 -10 -50 l0 -31 -815 0
-815 0 0 38 c0 21 -5 43 -12 50 -9 9 174 12 825 12 825 0 838 0 827 -19z
m-1400 -151 l0 -40 115 0 115 0 0 40 0 40 115 0 115 0 0 -40 0 -40 115 0 115
0 0 40 0 40 120 0 120 0 0 -40 0 -40 110 0 110 0 0 40 0 40 120 0 120 0 0 -40
0 -40 -115 0 -115 0 0 -40 0 -40 115 0 115 0 0 -45 0 -46 -117 3 -118 3 -3 43
-3 42 -109 0 -109 0 -3 -42 -3 -43 -117 -3 -118 -3 0 46 0 45 -115 0 -115 0 0
-45 0 -45 -114 0 -115 0 -3 43 -3 42 -112 3 -112 3 -3 -43 -3 -43 -115 0 -115
0 -3 43 -3 42 115 0 116 0 0 40 0 40 -115 0 -115 0 0 40 0 40 120 0 120 0 0
-40z m1620 -1268 l0 -969 -512 -196 c-282 -108 -518 -197 -524 -199 -6 -2
-245 87 -532 197 l-522 200 0 967 0 968 1045 0 1045 0 0 -968z"/>
<path d="M1400 2720 l0 -40 115 0 115 0 0 40 0 40 -115 0 -115 0 0 -40z"/>
<path d="M1869 2755 c0 -3 -1 -20 -2 -37 l-1 -33 112 -3 112 -3 0 41 0 40
-110 0 c-60 0 -110 -2 -111 -5z"/>
<path d="M880 1508 l0 -823 376 376 c454 454 439 419 182 419 l-168 0 0 -60 0
-60 -60 0 -60 0 0 460 0 461 76 -3 77 -3 219 -350 c121 -192 223 -353 227
-357 3 -4 180 166 391 377 l385 385 -823 0 -822 0 0 -822z"/>
<path d="M1732 1477 c-468 -468 -852 -858 -852 -865 0 -6 8 -12 18 -12 23 0
1712 1689 1712 1713 0 9 -6 17 -13 17 -6 0 -396 -384 -865 -853z"/>
<path d="M1790 1415 l-815 -815 818 0 817 0 0 815 c0 448 -1 815 -3 815 -1 0
-369 -367 -817 -815z m790 -25 l0 -760 -762 0 -763 0 340 340 c187 187 342
340 345 340 3 0 4 -130 2 -290 l-3 -290 90 0 91 0 2 266 3 265 179 -265 178
-266 74 0 74 0 0 375 0 375 -90 0 -90 0 0 -197 0 -198 -132 198 -132 197 -40
0 -41 0 335 335 c184 184 336 335 337 335 2 0 3 -342 3 -760z"/>
<path d="M1280 1817 l0 -177 111 0 c85 0 109 3 103 13 -20 32 -207 333 -210
336 -2 2 -4 -75 -4 -172z"/>
</g>
</svg>
